<svg xmlns="http://www.w3.org/2000/svg" viewBox="0 0 402 874" width="402" height="874" font-family="Onest, 'Segoe UI', Roboto, Helvetica, Arial, sans-serif"><defs><linearGradient id="pw" x1="0" y1="0" x2="0" y2="1"><stop offset="0" stop-color="#e3f2e8"/><stop offset=".62" stop-color="#fff"/></linearGradient></defs><rect x="0" y="0" width="402" height="874" rx="0" fill="url(#pw)"/><text x="34" y="34" font-size="16" font-weight="600" fill="#16181d">9:41</text><rect x="296" y="30" width="4" height="6" rx="1" fill="#16181d"/><rect x="302" y="27" width="4" height="9" rx="1" fill="#16181d"/><rect x="308" y="24" width="4" height="12" rx="1" fill="#16181d"/><rect x="314" y="21" width="4" height="15" rx="1" fill="#16181d"/><path d="M1 5.5a9 9 0 0 1 14 0M3.6 8.3a5.4 5.4 0 0 1 8.8 0M6.3 11a1.9 1.9 0 0 1 3.4 0" transform="translate(322 21)" fill="none" stroke="#16181d" stroke-width="1.7" stroke-linecap="round" stroke-linejoin="round"/><rect x="345.5" y="21.5" width="26" height="13" rx="4" fill="none" stroke="#16181d" stroke-opacity="0.45"/><rect x="348" y="24" width="19" height="8" rx="2" fill="#16181d"/><rect x="373" y="25.5" width="2" height="5" rx="1" fill="#16181d" fill-opacity="0.45"/><circle cx="44" cy="96" r="16" fill="#2f8f5b"/><path d="M8 14C3 12 2.5 6.5 6 3c1.8 3.8 5.5 4.6 6.5 1 1.5 5-1 9.5-4.5 10zM8 14V8.5" transform="translate(36 87)" fill="none" stroke="#fff" stroke-width="1.7" stroke-linecap="round" stroke-linejoin="round"/><text x="70" y="102" font-size="17" font-weight="650" fill="#16181d">Plant care</text><circle cx="201" cy="300" r="132" fill="#d3eadb"/><path d="M201 360Q201 276 154.8 255" stroke="#2c7a4b" stroke-width="3.1500000000000004" fill="none"/><ellipse cx="154.8" cy="255" rx="35.7" ry="67.2" fill="#3f9d63" transform="rotate(-34 154.8 255)"/><path d="M154.8 308.76L154.8 201.24" stroke="#ffffff" stroke-opacity=".35" stroke-width="2.1" transform="rotate(-34 154.8 255)"/><path d="M201 360Q201 269.7 249.3 248.7" stroke="#2c7a4b" stroke-width="3.1500000000000004" fill="none"/><ellipse cx="249.3" cy="248.7" rx="37.800000000000004" ry="71.4" fill="#2f8f5b" transform="rotate(30 249.3 248.7)"/><path d="M249.3 305.82L249.3 191.57999999999998" stroke="#ffffff" stroke-opacity=".35" stroke-width="2.1" transform="rotate(30 249.3 248.7)"/><path d="M201 360Q201 229.8 201 208.8" stroke="#2c7a4b" stroke-width="3.1500000000000004" fill="none"/><ellipse cx="201" cy="208.8" rx="31.5" ry="75.60000000000001" fill="#5bb57c" transform="rotate(0 201 208.8)"/><path d="M201 269.28000000000003L201 148.32" stroke="#ffffff" stroke-opacity=".35" stroke-width="2.1" transform="rotate(0 201 208.8)"/><path d="M201 360Q201 339 131.7 318" stroke="#2c7a4b" stroke-width="3.1500000000000004" fill="none"/><ellipse cx="131.7" cy="318" rx="29.400000000000002" ry="52.5" fill="#2f8f5b" transform="rotate(-62 131.7 318)"/><path d="M131.7 360L131.7 276" stroke="#ffffff" stroke-opacity=".35" stroke-width="2.1" transform="rotate(-62 131.7 318)"/><path d="M201 360Q201 334.8 272.4 313.8" stroke="#2c7a4b" stroke-width="3.1500000000000004" fill="none"/><ellipse cx="272.4" cy="313.8" rx="31.5" ry="54.6" fill="#3f9d63" transform="rotate(62 272.4 313.8)"/><path d="M272.4 357.48L272.4 270.12" stroke="#ffffff" stroke-opacity=".35" stroke-width="2.1" transform="rotate(62 272.4 313.8)"/><path d="M122.25 360h157.5l-19.949999999999996 96.60000000000001h-117.60000000000001z" fill="#d9825b"/><rect x="113.85" y="347.4" width="174.3" height="25.200000000000003" rx="8.4" fill="#e59a74"/><ellipse cx="201" cy="468" rx="96" ry="10" fill="#2c7a4b" fill-opacity=".12"/><text x="28" y="544" font-size="34" font-weight="700" fill="#16181d">Your plants,</text><text x="28" y="584" font-size="34" font-weight="700" fill="#16181d">on schedule</text><text x="28" y="624" font-size="16" font-weight="400" fill="#6b717e">Reminders that know how much light each</text><text x="28" y="648" font-size="16" font-weight="400" fill="#6b717e">plant gets and when it was last watered.</text><rect x="28" y="702" width="22" height="8" rx="4" fill="#2f8f5b"/><circle cx="62" cy="706" r="4" fill="#cfe3d6"/><circle cx="76" cy="706" r="4" fill="#cfe3d6"/><rect x="24" y="736" width="354" height="56" rx="18" fill="#2f8f5b"/><text x="201" y="770" font-size="17" font-weight="600" fill="#fff" text-anchor="middle">Get started</text><text x="201" y="826" font-size="15" font-weight="500" fill="#2f8f5b" text-anchor="middle">I already have an account</text><rect x="134" y="860" width="134" height="5" rx="2.5" fill="#16181d"/></svg>
