<svg xmlns="http://www.w3.org/2000/svg" viewBox="0 0 650 1321" width="650" height="1321" font-family="Onest, 'Segoe UI', Roboto, Helvetica, Arial, sans-serif"><defs><linearGradient id="pt" x1="0" y1="0" x2="1" y2="1"><stop offset="0" stop-color="#2f8f5b"/><stop offset="1" stop-color="#46b374"/></linearGradient><linearGradient id="dv" x1="0" y1="0" x2="1" y2="1"><stop offset="0" stop-color="#4a505a"/><stop offset=".5" stop-color="#1e2228"/><stop offset="1" stop-color="#3a3f47"/></linearGradient><clipPath id="scr"><rect x="30" y="22" width="590" height="1277" rx="78"/></clipPath></defs><rect x="0" y="300" width="12" height="72" rx="4" fill="#2a2e35"/><rect x="0" y="392" width="12" height="72" rx="4" fill="#2a2e35"/><rect x="638" y="350" width="12" height="118" rx="4" fill="#2a2e35"/><rect x="8" y="0" width="634" height="1321" rx="96" fill="url(#dv)"/><rect x="16" y="8" width="618" height="1305" rx="90" fill="#0b0d10"/><g clip-path="url(#scr)"><rect x="30" y="22" width="590" height="1277" rx="0" fill="#f5f7f4"/><g transform="translate(31.319221967963358 22) scale(1.4611)"><rect x="0" y="0" width="402" height="874" rx="0" fill="#f5f7f4"/><text x="34" y="34" font-size="16" font-weight="600" fill="#16181d">9:41</text><rect x="296" y="30" width="4" height="6" rx="1" fill="#16181d"/><rect x="302" y="27" width="4" height="9" rx="1" fill="#16181d"/><rect x="308" y="24" width="4" height="12" rx="1" fill="#16181d"/><rect x="314" y="21" width="4" height="15" rx="1" fill="#16181d"/><path d="M1 5.5a9 9 0 0 1 14 0M3.6 8.3a5.4 5.4 0 0 1 8.8 0M6.3 11a1.9 1.9 0 0 1 3.4 0" transform="translate(322 21)" fill="none" stroke="#16181d" stroke-width="1.7" stroke-linecap="round" stroke-linejoin="round"/><rect x="345.5" y="21.5" width="26" height="13" rx="4" fill="none" stroke="#16181d" stroke-opacity="0.45"/><rect x="348" y="24" width="19" height="8" rx="2" fill="#16181d"/><rect x="373" y="25.5" width="2" height="5" rx="1" fill="#16181d" fill-opacity="0.45"/><text x="24" y="104" font-size="32" font-weight="700" fill="#16181d">Today</text><circle cx="356" cy="94" r="20" fill="#ffe0cc"/><text x="356" y="99" font-size="13" font-weight="650" fill="#9a4a1e" text-anchor="middle">AK</text><text x="24" y="132" font-size="15" font-weight="400" fill="#6b717e">Tuesday, 14 May</text><rect x="16" y="154" width="370" height="132" rx="24" fill="url(#pt)"/><circle cx="84" cy="220" r="36" fill="none" stroke="#fff" stroke-opacity="0.28" stroke-width="9"/><circle cx="84" cy="220" r="36" fill="none" stroke="#fff" stroke-width="9" stroke-linecap="round" stroke-dasharray="135.7 226.2" transform="rotate(-90 84 220)"/><text x="84" y="227" font-size="20" font-weight="700" fill="#fff" text-anchor="middle">3/5</text><text x="142" y="213" font-size="19" font-weight="650" fill="#fff">3 of 5 watered</text><text x="142" y="239" font-size="14" font-weight="400" fill="#ffffff" fill-opacity="0.82">Two more before sunset</text><text x="24" y="330" font-size="18" font-weight="650" fill="#16181d">To water</text><text x="378" y="330" font-size="15" font-weight="600" fill="#2f8f5b" text-anchor="end">See all</text><rect x="16" y="348" width="370" height="66" rx="18" fill="#fff"/><circle cx="52" cy="381" r="22" fill="#e1f1e6"/><path d="M8 14C3 12 2.5 6.5 6 3c1.8 3.8 5.5 4.6 6.5 1 1.5 5-1 9.5-4.5 10zM8 14V8.5" transform="translate(44 373)" fill="none" stroke="#2f8f5b" stroke-width="1.7" stroke-linecap="round" stroke-linejoin="round"/><text x="88" y="377" font-size="16" font-weight="600" fill="#16181d">Monstera</text><text x="88" y="398" font-size="13" font-weight="400" fill="#6b717e">250 ml · every 7 days</text><circle cx="354" cy="381" r="13" fill="#2f8f5b"/><path d="M4 8.5l2.8 2.8L12.5 5.5" transform="translate(346 373)" fill="none" stroke="#fff" stroke-width="2" stroke-linecap="round" stroke-linejoin="round"/><rect x="16" y="424" width="370" height="66" rx="18" fill="#fff"/><circle cx="52" cy="457" r="22" fill="#eaf3dc"/><path d="M8 14C3 12 2.5 6.5 6 3c1.8 3.8 5.5 4.6 6.5 1 1.5 5-1 9.5-4.5 10zM8 14V8.5" transform="translate(44 449)" fill="none" stroke="#2f8f5b" stroke-width="1.7" stroke-linecap="round" stroke-linejoin="round"/><text x="88" y="453" font-size="16" font-weight="600" fill="#16181d">Fiddle leaf fig</text><text x="88" y="474" font-size="13" font-weight="400" fill="#6b717e">300 ml · every 7 days</text><circle cx="354" cy="457" r="13" fill="#2f8f5b"/><path d="M4 8.5l2.8 2.8L12.5 5.5" transform="translate(346 449)" fill="none" stroke="#fff" stroke-width="2" stroke-linecap="round" stroke-linejoin="round"/><rect x="16" y="500" width="370" height="66" rx="18" fill="#fff"/><circle cx="52" cy="533" r="22" fill="#e3efe9"/><path d="M8 14C3 12 2.5 6.5 6 3c1.8 3.8 5.5 4.6 6.5 1 1.5 5-1 9.5-4.5 10zM8 14V8.5" transform="translate(44 525)" fill="none" stroke="#2f8f5b" stroke-width="1.7" stroke-linecap="round" stroke-linejoin="round"/><text x="88" y="529" font-size="16" font-weight="600" fill="#16181d">Snake plant</text><text x="88" y="550" font-size="13" font-weight="400" fill="#6b717e">150 ml · every 14 days</text><circle cx="354" cy="533" r="13" fill="#2f8f5b"/><path d="M4 8.5l2.8 2.8L12.5 5.5" transform="translate(346 525)" fill="none" stroke="#fff" stroke-width="2" stroke-linecap="round" stroke-linejoin="round"/><rect x="16" y="576" width="370" height="66" rx="18" fill="#fff"/><circle cx="52" cy="609" r="22" fill="#f3efdc"/><path d="M8 14C3 12 2.5 6.5 6 3c1.8 3.8 5.5 4.6 6.5 1 1.5 5-1 9.5-4.5 10zM8 14V8.5" transform="translate(44 601)" fill="none" stroke="#2f8f5b" stroke-width="1.7" stroke-linecap="round" stroke-linejoin="round"/><text x="88" y="605" font-size="16" font-weight="600" fill="#16181d">Pothos</text><text x="88" y="626" font-size="13" font-weight="400" fill="#6b717e">200 ml · every 5 days</text><circle cx="354" cy="609" r="12" fill="none" stroke="#cdd5cd" stroke-width="2"/><rect x="16" y="652" width="370" height="66" rx="18" fill="#fff"/><circle cx="52" cy="685" r="22" fill="#f1e6ee"/><path d="M8 14C3 12 2.5 6.5 6 3c1.8 3.8 5.5 4.6 6.5 1 1.5 5-1 9.5-4.5 10zM8 14V8.5" transform="translate(44 677)" fill="none" stroke="#2f8f5b" stroke-width="1.7" stroke-linecap="round" stroke-linejoin="round"/><text x="88" y="681" font-size="16" font-weight="600" fill="#16181d">Calathea</text><text x="88" y="702" font-size="13" font-weight="400" fill="#6b717e">200 ml · every 4 days</text><circle cx="354" cy="685" r="12" fill="none" stroke="#cdd5cd" stroke-width="2"/><rect x="0" y="770" width="402" height="104" rx="0" fill="#fff"/><path d="M0 770.5H402" stroke="#e6e8ec"/><path d="M3 9.5 10 3.5l7 6V17H3z" transform="translate(48 784)" fill="none" stroke="#2f8f5b" stroke-width="1.8" stroke-linecap="round" stroke-linejoin="round"/><text x="58" y="826" font-size="11" font-weight="600" fill="#2f8f5b" text-anchor="middle">Today</text><path d="M8 14C3 12 2.5 6.5 6 3c1.8 3.8 5.5 4.6 6.5 1 1.5 5-1 9.5-4.5 10zM8 14V8.5" transform="translate(143 784)" fill="none" stroke="#9ba1ad" stroke-width="1.8" stroke-linecap="round" stroke-linejoin="round"/><text x="153" y="826" font-size="11" font-weight="600" fill="#9ba1ad" text-anchor="middle">Plants</text><path d="M3 5h14v12H3zM3 9h14M7 3v4M13 3v4" transform="translate(238 784)" fill="none" stroke="#9ba1ad" stroke-width="1.8" stroke-linecap="round" stroke-linejoin="round"/><text x="248" y="826" font-size="11" font-weight="600" fill="#9ba1ad" text-anchor="middle">Calendar</text><path d="M10 10a3.5 3.5 0 1 0 0-7 3.5 3.5 0 0 0 0 7zM3.5 17.5c1-3.5 4-5 6.5-5s5.5 1.5 6.5 5" transform="translate(333 784)" fill="none" stroke="#9ba1ad" stroke-width="1.8" stroke-linecap="round" stroke-linejoin="round"/><text x="343" y="826" font-size="11" font-weight="600" fill="#9ba1ad" text-anchor="middle">Profile</text><rect x="134" y="860" width="134" height="5" rx="2.5" fill="#16181d"/></g></g><rect x="265" y="44" width="120" height="34" rx="17" fill="#0b0d10"/></svg>
